<svg width="18" height="19" viewBox="0 0 18 19" fill="none" xmlns="http://www.w3.org/2000/svg">
<path d="M1 1.99999V6.99999H1.582M1.582 6.99999C2.24585 5.35812 3.43568 3.9829 4.96503 3.08985C6.49438 2.1968 8.2768 1.8364 10.033 2.06513C11.7891 2.29386 13.4198 3.09878 14.6694 4.35377C15.919 5.60875 16.7168 7.24285 16.938 8.99999M1.582 6.99999H6M17 18V13H16.419M16.419 13C15.7542 14.6409 14.564 16.015 13.0348 16.9073C11.5056 17.7995 9.72374 18.1595 7.9681 17.9309C6.21246 17.7022 4.5822 16.8979 3.33253 15.6437C2.08287 14.3896 1.28435 12.7564 1.062 11M16.419 13H12" stroke="black" stroke-width="2" stroke-linecap="round" stroke-linejoin="round"/>
</svg>
